{"title":"Smurfs 2011 TS V2  XViD DTRG","uid":6600490,"size":1001119421,"categoryP":"video","categoryS":"movies","magnet":"?xt=urn:btih:e9ba03c432d9ac9cf3aa3f56f0bab37d97e7e721&amp;dn=Smurfs+2011+TS+V2++XViD+DTRG&amp;tr=udp%3A%2F%2Ftracker.openbittorrent.com%3A80&amp;tr=udp%3A%2F%2Fopen.demonii.com%3A1337&amp;tr=udp%3A%2F%2Ftracker.coppersurfer.tk%3A6969&amp;tr=udp%3A%2F%2Fexodus.desync.com%3A6969","seeders":1,"leechers":0,"uploader":"SAFCukO09","files":4,"time":1313183306,"description":"Format : AVI\nFormat/Info : Audio Video Interleave\nFile size : 946 MiB\nDuration : 1h 32mn\nOverall bit rate : 1 427 Kbps\nWriting library : VirtualDub build 32842/release\n\nVideo\nID : 0\nFormat : MPEG-4 Visual\nFormat profile : Advanced Simple@L5\nFormat settings, BVOP : 2\nFormat settings, QPel : No\nFormat settings, GMC : No warppoints\nFormat settings, Matrix : Default (H.263)\nMuxing mode : Packed bitstream\nCodec ID : XVID\nCodec ID/Hint : XviD\nDuration : 1h 32mn\nBit rate : 1 289 Kbps\nWidth : 672 pixels\nHeight : 342 pixels\nDisplay aspect ratio : 1.965\nFrame rate : 25.000 fps\nColor space : YUV\nChroma subsampling : 4:2:0\nBit depth : 8 bits\nScan type : Progressive\nCompression mode : Lossy\nBits/(Pixel*Frame) : 0.224\nStream size : 855 MiB (90%)\nWriting library : XviD 64\n\nAudio\nID : 1\nFormat : MPEG Audio\nFormat version : Version 1\nFormat profile : Layer 3\nMode : Joint stereo\nCodec ID : 55\nCodec ID/Hint : MP3\nDuration : 1h 32mn\nBit rate mode : Constant\nBit rate : 128 Kbps\nChannel(s) : 2 channels\nSampling rate : 44.1 KHz\nCompression mode : Lossy\nStream size : 84.8 MiB (9%)\nAlignment : Split accross interleaves\nInterleave, duration : 40 ms (1.00 video frame)\nInterleave, preload duration : 500 ms\nWriting library : LAME3.98r\nEncoding settings : -m j -V 4 -q 2 -lowpass 17 -b 128\n\n\n\n\n\n\n &lt;a href=&quot;\nhttp://www.imdb.com/title/tt0472181/&quot; rel=&quot;nofollow&quot; target=&quot;_NEW&quot;&gt;\nhttp://www.imdb.com/title/tt0472181/&lt;/a&gt;\n\n\n\n\n\n\n\n\n\nWhen the evil wizard Gargamel chases the tiny blue Smurfs out of their village, they tumble from their magical world and into ours.\n\nCast\nCast overview, first billed only:\nHank Azaria Gargamel\nNeil Patrick Harris Patrick Winslow\nJayma Mays Grace Winslow\n\n\n\n\n\n\n\n\n\n\n\n\n\n\n\n\n\n\n\n\n\n\n\nSource Used\n\n\nVIDEO: ........... Die.Schluempfe.TS.MD.German.XviD-FLOPPYDiSK ...IMAGiNE ..... Thanks\n\n\n\nAUDIO: ........... IMAGiNE ...................................................Thanks\n\n\n\nResizes,smoothened ,added asaturation ,conrast ,levels filter\n\n\n\nEnjoy\n\n\n\n\n\nGreetz to IMAGiNE,Flawl3ss,DiLLoN,BDK,NOiR,TOXiC,THC,Ez,Rx,Boobyblue,TaRiQ786\n","torrent":{"xt":"urn:btih:e9ba03c432d9ac9cf3aa3f56f0bab37d97e7e721","amp;dn":"Smurfs+2011+TS+V2++XViD+DTRG","amp;tr":["udp%3A%2F%2Ftracker.openbittorrent.com%3A80","udp%3A%2F%2Fopen.demonii.com%3A1337","udp%3A%2F%2Ftracker.coppersurfer.tk%3A6969","udp%3A%2F%2Fexodus.desync.com%3A6969"],"infoHash":"e9ba03c432d9ac9cf3aa3f56f0bab37d97e7e721","infoHashBuffer":{"type":"Buffer","data":[233,186,3,196,50,217,172,156,243,170,63,86,240,186,179,125,151,231,231,33]},"announce":[],"urlList":[]}}